<svg width="57" height="37" viewBox="0 0 57 37" fill="none" xmlns="http://www.w3.org/2000/svg">
<g clip-path="url(#clip0_38_2)">
<path d="M57 0H0V37H57V0Z" fill="#FF9933"/>
<path d="M57 12.333H0V24.6664H57V12.333Z" fill="white"/>
<path d="M57 24.6661H0V36.9994H57V24.6661Z" fill="#128807"/>
<path fill-rule="evenodd" clip-rule="evenodd" d="M33.5665 18.4994C33.5665 21.224 31.2981 23.4327 28.4998 23.4327C25.7016 23.4327 23.4332 21.224 23.4332 18.4994C23.4332 15.7748 25.7016 13.5661 28.4998 13.5661C31.2981 13.5661 33.5665 15.7748 33.5665 18.4994ZM32.9332 18.4994C32.9332 20.8834 30.9483 22.8161 28.4998 22.8161C26.0514 22.8161 24.0665 20.8834 24.0665 18.4994C24.0665 16.1154 26.0514 14.1827 28.4998 14.1827C30.9483 14.1827 32.9332 16.1154 32.9332 18.4994Z" fill="#000088"/>
<path d="M28.4998 19.3627C28.9895 19.3627 29.3865 18.9762 29.3865 18.4994C29.3865 18.0226 28.9895 17.6361 28.4998 17.6361C28.0102 17.6361 27.6132 18.0226 27.6132 18.4994C27.6132 18.9762 28.0102 19.3627 28.4998 19.3627Z" fill="#000088"/>
<path d="M32.8663 19.2768C32.9877 19.2924 33.099 19.2092 33.115 19.091C33.131 18.9728 33.0455 18.8644 32.9241 18.8488C32.8028 18.8333 32.6914 18.9165 32.6754 19.0347C32.6595 19.1528 32.7449 19.2613 32.8663 19.2768Z" fill="#000088"/>
<path d="M28.4998 22.8161L28.6518 20.2261L28.4998 18.9927L28.3478 20.2261L28.4998 22.8161Z" fill="#000088"/>
<path d="M32.5108 20.3507C32.6239 20.3963 32.7536 20.344 32.8005 20.2339C32.8473 20.1238 32.7936 19.9975 32.6805 19.9519C32.5674 19.9063 32.4377 19.9586 32.3909 20.0687C32.344 20.1788 32.3977 20.3051 32.5108 20.3507Z" fill="#000088"/>
<path d="M27.3524 22.669L28.1877 20.2055L28.3687 18.9759L27.894 20.1289L27.3524 22.669Z" fill="#000088"/>
<path d="M31.8821 21.2985C31.9792 21.371 32.1183 21.3532 32.1929 21.2586C32.2674 21.164 32.2491 21.0286 32.1519 20.956C32.0548 20.8834 31.9157 20.9013 31.8411 20.9958C31.7666 21.0904 31.7849 21.2259 31.8821 21.2985Z" fill="#000088"/>
<path d="M26.2831 22.2377L27.7448 20.0687L28.2465 18.9266L27.4815 19.9207L26.2831 22.2377Z" fill="#000088"/>
<path d="M31.0228 22.0554C31.0973 22.15 31.2365 22.1678 31.3336 22.0953C31.4307 22.0227 31.449 21.8872 31.3745 21.7927C31.3 21.6981 31.1608 21.6802 31.0637 21.7528C30.9666 21.8254 30.9483 21.9609 31.0228 22.0554Z" fill="#000088"/>
<path d="M25.365 21.5517L27.3533 19.825L28.1415 18.8482L27.1384 19.6157L25.365 21.5517Z" fill="#000088"/>
<path d="M29.9916 22.5701C30.0384 22.6803 30.1681 22.7326 30.2812 22.6869C30.3943 22.6413 30.448 22.5151 30.4012 22.4049C30.3543 22.2948 30.2246 22.2425 30.1115 22.2881C29.9984 22.3338 29.9447 22.46 29.9916 22.5701Z" fill="#000088"/>
<path d="M24.6604 20.6578L27.04 19.491L28.061 18.7461L26.888 19.2346L24.6604 20.6578Z" fill="#000088"/>
<path d="M28.8587 22.8074C28.8747 22.9255 28.986 23.0087 29.1074 22.9932C29.2288 22.9776 29.3142 22.8692 29.2982 22.751C29.2823 22.6328 29.1709 22.5497 29.0495 22.5652C28.9282 22.5808 28.8427 22.6892 28.8587 22.8074Z" fill="#000088"/>
<path d="M24.2175 19.6167L26.8262 19.0893L28.0104 18.6271L26.7475 18.8034L24.2175 19.6167Z" fill="#000088"/>
<path d="M27.7013 22.751C27.6854 22.8692 27.7708 22.9776 27.8922 22.9932C28.0136 23.0087 28.1249 22.9255 28.1409 22.8074C28.1569 22.6892 28.0714 22.5808 27.9501 22.5652C27.8287 22.5496 27.7173 22.6328 27.7013 22.751Z" fill="#000088"/>
<path d="M24.0665 18.4994L26.7265 18.6474L27.9931 18.4994L26.7265 18.3514L24.0665 18.4994Z" fill="#000088"/>
<path d="M26.5984 22.4049C26.5515 22.5151 26.6052 22.6413 26.7183 22.6869C26.8314 22.7326 26.9611 22.6803 27.0079 22.5701C27.0548 22.46 27.0011 22.3337 26.888 22.2881C26.7749 22.2425 26.6452 22.2948 26.5984 22.4049Z" fill="#000088"/>
<path d="M24.2174 17.3822L26.7475 18.1955L28.0103 18.3718L26.8261 17.9096L24.2174 17.3822Z" fill="#000088"/>
<path d="M25.6251 21.7927C25.5506 21.8872 25.5689 22.0227 25.6661 22.0953C25.7632 22.1678 25.9023 22.15 25.9769 22.0554C26.0514 21.9609 26.0331 21.8254 25.9359 21.7528C25.8388 21.6802 25.6997 21.6981 25.6251 21.7927Z" fill="#000088"/>
<path d="M24.6605 16.3411L26.8881 17.7642L28.0611 18.2527L27.0401 17.5079L24.6605 16.3411Z" fill="#000088"/>
<path d="M24.8477 20.956C24.7506 21.0286 24.7323 21.164 24.8068 21.2586C24.8813 21.3532 25.0205 21.371 25.1176 21.2985C25.2147 21.2259 25.233 21.0904 25.1585 20.9958C25.084 20.9013 24.9448 20.8834 24.8477 20.956Z" fill="#000088"/>
<path d="M25.365 15.4471L27.1384 17.3831L28.1416 18.1506L27.3534 17.1738L25.365 15.4471Z" fill="#000088"/>
<path d="M24.3191 19.9519C24.206 19.9975 24.1523 20.1238 24.1992 20.2339C24.246 20.344 24.3757 20.3963 24.4888 20.3507C24.6019 20.3051 24.6556 20.1789 24.6088 20.0687C24.5619 19.9586 24.4322 19.9063 24.3191 19.9519Z" fill="#000088"/>
<path d="M26.2832 14.7611L27.4815 17.0781L28.2465 18.0722L27.7448 16.9301L26.2832 14.7611Z" fill="#000088"/>
<path d="M24.0755 18.8489C23.9541 18.8644 23.8687 18.9728 23.8847 19.091C23.9006 19.2092 24.012 19.2924 24.1334 19.2768C24.2547 19.2613 24.3402 19.1529 24.3242 19.0347C24.3082 18.9165 24.1969 18.8333 24.0755 18.8489Z" fill="#000088"/>
<path d="M27.3524 14.3298L27.894 16.8699L28.3687 18.0229L28.1877 16.7933L27.3524 14.3298Z" fill="#000088"/>
<path d="M24.1334 17.722C24.012 17.7064 23.9006 17.7896 23.8847 17.9078C23.8687 18.026 23.9541 18.1344 24.0755 18.15C24.1969 18.1655 24.3082 18.0823 24.3242 17.9641C24.3402 17.846 24.2547 17.7375 24.1334 17.722Z" fill="#000088"/>
<path d="M28.4998 14.1827L28.3478 16.7727L28.4998 18.0061L28.6518 16.7727L28.4998 14.1827Z" fill="#000088"/>
<path d="M24.4888 16.6481C24.3757 16.6025 24.246 16.6548 24.1992 16.7649C24.1523 16.875 24.206 17.0013 24.3191 17.0469C24.4323 17.0925 24.5619 17.0402 24.6088 16.9301C24.6556 16.82 24.6019 16.6937 24.4888 16.6481Z" fill="#000088"/>
<path d="M29.6473 14.3298L28.812 16.7933L28.631 18.0229L29.1056 16.8699L29.6473 14.3298Z" fill="#000088"/>
<path d="M25.1176 15.7004C25.0205 15.6278 24.8813 15.6456 24.8068 15.7402C24.7323 15.8348 24.7506 15.9703 24.8477 16.0428C24.9448 16.1154 25.084 16.0975 25.1585 16.003C25.233 15.9084 25.2147 15.7729 25.1176 15.7004Z" fill="#000088"/>
<path d="M30.7165 14.7611L29.2549 16.9301L28.7532 18.0722L29.5181 17.0781L30.7165 14.7611Z" fill="#000088"/>
<path d="M25.9769 14.9434C25.9023 14.8488 25.7632 14.831 25.6661 14.9035C25.5689 14.9761 25.5506 15.1116 25.6251 15.2062C25.6997 15.3007 25.8388 15.3186 25.9359 15.246C26.0331 15.1734 26.0514 15.0379 25.9769 14.9434Z" fill="#000088"/>
<path d="M31.6347 15.4471L29.6463 17.1738L28.8581 18.1506L29.8613 17.3831L31.6347 15.4471Z" fill="#000088"/>
<path d="M27.0081 14.4287C26.9612 14.3186 26.8316 14.2663 26.7185 14.3119C26.6054 14.3575 26.5517 14.4838 26.5985 14.5939C26.6454 14.704 26.775 14.7563 26.8881 14.7107C27.0012 14.6651 27.0549 14.5388 27.0081 14.4287Z" fill="#000088"/>
<path d="M32.3392 16.3411L29.9596 17.5079L28.9387 18.2527L30.1116 17.7642L32.3392 16.3411Z" fill="#000088"/>
<path d="M28.141 14.1915C28.125 14.0733 28.0136 13.9901 27.8923 14.0057C27.7709 14.0212 27.6854 14.1296 27.7014 14.2478C27.7174 14.366 27.8288 14.4492 27.9501 14.4336C28.0715 14.4181 28.1569 14.3097 28.141 14.1915Z" fill="#000088"/>
<path d="M32.7821 17.3822L30.1734 17.9095L28.9893 18.3717L30.2521 18.1955L32.7821 17.3822Z" fill="#000088"/>
<path d="M29.2983 14.2478C29.3143 14.1296 29.2288 14.0212 29.1075 14.0057C28.9861 13.9901 28.8747 14.0733 28.8588 14.1915C28.8428 14.3097 28.9282 14.4181 29.0496 14.4336C29.171 14.4492 29.2823 14.366 29.2983 14.2478Z" fill="#000088"/>
<path d="M32.9332 18.4994L30.2732 18.3514L29.0065 18.4994L30.2732 18.6474L32.9332 18.4994Z" fill="#000088"/>
<path d="M30.4012 14.5939C30.4481 14.4838 30.3944 14.3575 30.2813 14.3119C30.1682 14.2663 30.0385 14.3186 29.9916 14.4287C29.9448 14.5388 29.9985 14.6651 30.1116 14.7107C30.2247 14.7563 30.3544 14.704 30.4012 14.5939Z" fill="#000088"/>
<path d="M32.7821 19.6166L30.2521 18.8033L28.9893 18.6271L30.1734 19.0892L32.7821 19.6166Z" fill="#000088"/>
<path d="M31.3746 15.2061C31.4491 15.1116 31.4308 14.9761 31.3336 14.9035C31.2365 14.831 31.0974 14.8488 31.0228 14.9434C30.9483 15.0379 30.9666 15.1734 31.0638 15.246C31.1609 15.3185 31.3 15.3007 31.3746 15.2061Z" fill="#000088"/>
<path d="M32.3392 20.6577L30.1116 19.2346L28.9387 18.7461L29.9596 19.4909L32.3392 20.6577Z" fill="#000088"/>
<path d="M32.152 16.0428C32.2491 15.9702 32.2675 15.8348 32.1929 15.7402C32.1184 15.6456 31.9792 15.6278 31.8821 15.7003C31.785 15.7729 31.7667 15.9084 31.8412 16.003C31.9157 16.0975 32.0549 16.1154 32.152 16.0428Z" fill="#000088"/>
<path d="M31.6347 21.5517L29.8613 19.6157L28.8581 18.8482L29.6463 19.825L31.6347 21.5517Z" fill="#000088"/>
<path d="M32.6806 17.0469C32.7937 17.0013 32.8474 16.875 32.8005 16.7649C32.7537 16.6548 32.624 16.6025 32.5109 16.6481C32.3978 16.6937 32.3441 16.8199 32.3909 16.9301C32.4378 17.0402 32.5675 17.0925 32.6806 17.0469Z" fill="#000088"/>
<path d="M30.7165 22.2377L29.5182 19.9207L28.7532 18.9266L29.2549 20.0687L30.7165 22.2377Z" fill="#000088"/>
<path d="M32.9242 18.1499C33.0456 18.1344 33.131 18.026 33.115 17.9078C33.0991 17.7896 32.9877 17.7064 32.8663 17.722C32.745 17.7375 32.6595 17.8459 32.6755 17.9641C32.6915 18.0823 32.8028 18.1655 32.9242 18.1499Z" fill="#000088"/>
<path d="M29.6473 22.669L29.1057 20.1289L28.631 18.9759L28.812 20.2055L29.6473 22.669Z" fill="#000088"/>
</g>
<defs>
<clipPath id="clip0_38_2">
<rect width="57" height="37" fill="white"/>
</clipPath>
</defs>
</svg>
