<svg width="26" height="24" viewBox="0 0 26 24" fill="none" xmlns="http://www.w3.org/2000/svg">
<g filter="url(#filter0_d_7_76)">
<path fill-rule="evenodd" clip-rule="evenodd" d="M13.0282 0.166748C7.06008 0.166748 2.223 5.00383 2.223 10.9719C2.223 15.7451 5.31808 19.7957 9.61242 21.2257C10.153 21.3232 10.348 20.9906 10.348 20.7046C10.348 20.4478 10.3393 19.7675 10.3361 18.8673C7.32983 19.5194 6.695 17.4178 6.695 17.4178C6.20533 16.1698 5.49575 15.8372 5.49575 15.8372C4.51533 15.1666 5.5705 15.1818 5.5705 15.1818C6.656 15.2576 7.22475 16.2954 7.22475 16.2954C8.18892 17.9464 9.75542 17.4698 10.3686 17.1935C10.4672 16.4948 10.7488 16.0181 11.0565 15.7483C8.658 15.4764 6.136 14.5491 6.136 10.4075C6.136 9.22992 6.55742 8.26358 7.24533 7.50958C7.13592 7.2355 6.76217 6.13592 7.35258 4.64958C7.35258 4.64958 8.25933 4.35817 10.3231 5.75567C11.2045 5.51589 12.1137 5.3935 13.0271 5.39167C13.9405 5.39315 14.8498 5.51554 15.7311 5.75567C17.7959 4.35708 18.7016 4.64958 18.7016 4.64958C19.292 6.13592 18.9215 7.2355 18.8088 7.50958C19.5022 8.26358 19.9182 9.22883 19.9182 10.4075C19.9182 14.5599 17.394 15.4721 14.9868 15.7397C15.3714 16.0733 15.7181 16.732 15.7181 17.7395C15.7181 19.1847 15.7051 20.3503 15.7051 20.7046C15.7051 20.9938 15.8979 21.3297 16.4493 21.2235C20.7415 19.7913 23.8333 15.744 23.8333 10.9719C23.8333 5.00383 18.9963 0.166748 13.0282 0.166748Z" fill="#D3E97A"/>
</g>
<defs>
<filter id="filter0_d_7_76" x="-1.777" y="0.166748" width="29.6103" height="29.0769" filterUnits="userSpaceOnUse" color-interpolation-filters="sRGB">
<feFlood flood-opacity="0" result="BackgroundImageFix"/>
<feColorMatrix in="SourceAlpha" type="matrix" values="0 0 0 0 0 0 0 0 0 0 0 0 0 0 0 0 0 0 127 0" result="hardAlpha"/>
<feOffset dy="4"/>
<feGaussianBlur stdDeviation="2"/>
<feComposite in2="hardAlpha" operator="out"/>
<feColorMatrix type="matrix" values="0 0 0 0 0 0 0 0 0 0 0 0 0 0 0 0 0 0 0.25 0"/>
<feBlend mode="normal" in2="BackgroundImageFix" result="effect1_dropShadow_7_76"/>
<feBlend mode="normal" in="SourceGraphic" in2="effect1_dropShadow_7_76" result="shape"/>
</filter>
</defs>
</svg>
